/* XPM */
static char *_9f2cd0a3a424b51ddfcc736bdd450e1nVMOw0v4hM42gcOc[] = {
/* columns rows colors chars-per-pixel */
"32 32 42 1 ",
"  c None",
". c #8F5406",
"X c #945C05",
"o c #9C5E06",
"O c #9E6A04",
"+ c #A36A04",
"@ c #A36809",
"# c #AC7104",
"$ c #AA7B02",
"% c #AB7D02",
"& c #AF7A10",
"* c #AF8201",
"= c #B08201",
"- c #B28406",
"; c #B78E00",
": c #B4840F",
"> c #BA9100",
", c #BE9100",
"< c #C19600",
"1 c #CB9701",
"2 c #C49800",
"3 c #CC9E00",
"4 c #D19B01",
"5 c #D19902",
"6 c #C3931D",
"7 c #D3A000",
"8 c #D5A500",
"9 c #D8A800",
"0 c #DDAB00",
"q c #DFAD00",
"w c #D7A20E",
"e c #E3B000",
"r c #E7B300",
"t c #ECB700",
"y c #F2BF11",
"u c #D6A828",
"i c #E1B227",
"p c #E0B72B",
"a c #E5B931",
"s c #FBCE33",
"d c #F3CA38",
"f c #F9CF3D",
/* pixels */
"                                ",
"                                ",
"                                ",
"                                ",
"                                ",
"                                ",
"                                ",
"                                ",
"                                ",
"                                ",
"            rttysf              ",
"           7555wiap             ",
"          e5#oo@&6ad            ",
"         901+..XO:uap           ",
"        r03,=$$%*-:6af          ",
"        tq2;;;;;;*O&is          ",
"        tq2;;;;;;%X@wy          ",
"        tq2;;;;;;$.o5t          ",
"        tq2;;;;;;$.o5t          ",
"        r03<>;;;;=+#5r          ",
"         908<;;;;,157           ",
"          e03222230e            ",
"           90qqqq09             ",
"            rttttr              ",
"                                ",
"                                ",
"                                ",
"                                ",
"                                ",
"                                ",
"                                ",
"                                "
};
