/* XPM */
static char *e83ad83e94fa44f082b9ced651db1bf5DyL9O35K518g5rUu[] = {
/* columns rows colors chars-per-pixel */
"32 32 53 1 ",
"  c None",
". c #B78E00",
"X c #B88F00",
"o c #BB9401",
"O c #C49800",
"+ c #C59902",
"@ c #C69B07",
"# c #C89B02",
"$ c #C3A004",
"% c #CAAB07",
"& c #CAA20A",
"* c #DEAC00",
"= c #CFB409",
"- c #D1B00D",
"; c #D2B80B",
": c #D7BB14",
"> c #E0AF07",
", c #E2B005",
"< c #EBB600",
"1 c #EBB802",
"2 c #EDB905",
"3 c #EDBA09",
"4 c #EEBA09",
"5 c #E3B414",
"6 c #EDBB12",
"7 c #E8BF1C",
"8 c #F0BF12",
"9 c #DBC41F",
"0 c #F6DB0C",
"q c #F2C11A",
"w c #F2C21B",
"e c #F4C21B",
"r c #DFCA22",
"t c #EDCF21",
"y c #F6CD26",
"u c #F6CB28",
"i c #F7CB28",
"p c #F5DF24",
"a c #FBDC2D",
"s c #FCD734",
"d c #F1DB30",
"f c #FBD831",
"g c #FEDF35",
"h c #F8E326",
"j c #FFE82D",
"k c #FEE430",
"l c #FEE238",
"z c #FEEA3B",
"x c #FEE83C",
"c c #F3E54A",
"v c #F2E44B",
"b c #FCEF50",
"n c #FEF055",
/* pixels */
"                                ",
"                                ",
"                                ",
"                                ",
"                                ",
"                                ",
"                                ",
"                                ",
"                                ",
"                                ",
"              00                ",
"              hp                ",
"            jzbcr;              ",
"            kxnc9=              ",
"            glxd:%              ",
"            sfat-$              ",
"            iiy7&o              ",
"            qqq5@.              ",
"            444>+.              ",
"            <<<*+.              ",
"            <<<*+.              ",
"            <12,#X              ",
"              86                ",
"              ee                ",
"                                ",
"                                ",
"                                ",
"                                ",
"                                ",
"                                ",
"                                ",
"                                "
};
