/* XPM */
static char *edba6ae032ad4671ee30c6dee69f598czGZgSQpi2rf78BEg[] = {
/* columns rows colors chars-per-pixel */
"32 32 19 1 ",
"  c None",
". c #226FA2",
"X c #2573A7",
"o c #2978AC",
"O c #3B8CC2",
"+ c #4092C7",
"@ c #50A3D0",
"# c #64B0D9",
"$ c #69B4DB",
"% c #67BFDB",
"& c #7DC1E2",
"* c #80D3E5",
"= c #86D7E8",
"- c #95DCEE",
"; c #A4E4F4",
": c #AAEEF7",
"> c #B2E7F5",
", c #B3F0FB",
"< c #DAF6FC",
/* pixels */
"                                ",
"                                ",
"                                ",
"                                ",
"              ..                ",
"              oo                ",
"              OO                ",
"              @@                ",
"              %%                ",
"              ==                ",
"          ..  ::  ..            ",
"          .X  ,,  X.            ",
"            +$;;$+              ",
"            #&>>&#              ",
"      .oO@%*-><<>-*%@Oo.        ",
"      .oO@%*-><<>-*%@Oo.        ",
"            #&>>&#              ",
"            +$;;$+              ",
"          .X  ,,  X.            ",
"          ..  ::  ..            ",
"              ==                ",
"              %%                ",
"              @@                ",
"              OO                ",
"              oo                ",
"              ..                ",
"                                ",
"                                ",
"                                ",
"                                ",
"                                ",
"                                "
};
