/* XPM */
static char *_33fee5c72bb4d77da6ee7deb9663de3enWS32aS4aHEnsMI[] = {
/* columns rows colors chars-per-pixel */
"32 32 129 2 ",
"   c None",
".  c #24221F",
"X  c #29231E",
"o  c #2D261E",
"O  c #342411",
"+  c #382612",
"@  c #34281D",
"#  c #372A1E",
"$  c #372B1F",
"%  c #3B2A1A",
"&  c #3B2B1B",
"*  c #392B1E",
"=  c #3B2D1F",
"-  c #3D2D1D",
";  c #3F2D1C",
":  c #222220",
">  c #2B2621",
",  c #322920",
"<  c #342A20",
"1  c #342B20",
"2  c #342B22",
"3  c #332C25",
"4  c #372E26",
"5  c #382D21",
"6  c #3F3021",
"7  c #3C3024",
"8  c #3D3125",
"9  c #3F3124",
"0  c #3E3225",
"q  c #393029",
"w  c #3F372F",
"e  c #422D19",
"r  c #452F1B",
"t  c #47301B",
"y  c #47311D",
"u  c #4A321B",
"i  c #4C3219",
"p  c #4C341D",
"a  c #513419",
"s  c #53351A",
"d  c #54361B",
"f  c #53381F",
"g  c #56391E",
"h  c #5B3B1C",
"j  c #5B3B1D",
"k  c #5F3D1E",
"l  c #623F1F",
"z  c #413122",
"x  c #423325",
"c  c #443527",
"v  c #443627",
"b  c #4F3720",
"n  c #493625",
"m  c #4D3824",
"M  c #45382C",
"N  c #4C3A28",
"B  c #4F3C2B",
"V  c #483A2C",
"C  c #513821",
"Z  c #513922",
"A  c #523922",
"S  c #533A23",
"D  c #543920",
"F  c #543B24",
"G  c #573C24",
"H  c #5B3D21",
"J  c #5D3E20",
"K  c #473C31",
"L  c #64401E",
"P  c #64401F",
"I  c #65411F",
"U  c #66411F",
"Y  c #68421F",
"T  c #5F4022",
"R  c #5B4129",
"E  c #514234",
"W  c #594C3F",
"Q  c #634020",
"!  c #634122",
"~  c #654424",
"^  c #6B4420",
"/  c #6D4521",
"(  c #6E4621",
")  c #6F4622",
"_  c #6F4722",
"`  c #6C4827",
"'  c #6A4929",
"]  c #6E4B2B",
"[  c #714822",
"{  c #744B24",
"}  c #784D25",
"|  c #7B4F25",
" . c #7C4F25",
".. c #7C4F26",
"X. c #744E2A",
"o. c #734F2E",
"O. c #76502D",
"+. c #7A522B",
"@. c #7F542B",
"#. c #7E542E",
"$. c #7C5733",
"%. c #5B4E40",
"&. c #5F5041",
"*. c #655747",
"=. c #835428",
"-. c #845429",
";. c #845529",
":. c #865629",
">. c #87572A",
",. c #85582F",
"<. c #89592C",
"1. c #8D5B2C",
"2. c #8E5C2D",
"3. c #905C2D",
"4. c #915D2D",
"5. c #855930",
"6. c #875B31",
"7. c #845B35",
"8. c #8D5D30",
"9. c #8A5D34",
"0. c #98612F",
"q. c #98622F",
"w. c #8E6238",
"e. c #996330",
"r. c #9B6430",
"t. c #9E6633",
"y. c #90643A",
"u. c #A26933",
"i. c #A66B34",
/* pixels */
"                                                                ",
"                                                                ",
"                        i.i.i.i.i.i.i.i.                        ",
"                        e.q.q.q.q.q.q.e.                        ",
"                ( ..q.e.-.............-.e.q...(                 ",
"                ..=.4.1.} ( ( ( ( Y j L -.4.=...                ",
"                q.4.=.} [ ( ( ( ( j O + L =.4.q.                ",
"                i.r.-.} [ ( ( ( ( j O + L -.r.i.                ",
"                i.u.r.1.} ( ( ( ( Y j L -.r.u.i.                ",
"                #.8.t.r.-.............-.r.t.8.#.                ",
"            : > 7 R 8.u.r.q.q.q.q.q.q.r.u.8.R 7 > :             ",
"            1 , o z ] ,.,.6.6.9.w.y.y.w.9.o.n 1 1 1             ",
"            H f r ; z x x v V E &.*.*.&.E B G H H H             ",
"            ( L a e * 5 7 7 4 w W *.*.%.K N ` } [ (             ",
"            ( L a i g ~ +.X.C F $.y.y.7.' ` <.1.} (             ",
"            H f r u l ..q.2.k k 2.i.i.q...{ @.+.~ H             ",
"            1 , o = J ..q.2.k k 2.i.i.q...! m 7 5 1             ",
"            1 , o # b ~ +.X.C F $.y.y.7.' C 6 1 1 1             ",
"            H f r % # 5 7 7 4 w W *.*.%.K v C H H H             ",
"            ( L a e * 5 7 7 4 w W *.*.%.K N ` } [ (             ",
"            ( L a i g ~ +.X.C F $.y.y.7.' ` <.1.} (             ",
"            H f r u l ..q.2.k k 2.i.i.q...{ @.+.~ H             ",
"            1 , o = J ..q.2.k k 2.i.i.q...! m 7 5 1             ",
"            : . X # b ~ +.X.C C O.9.w.7.' C # X . :             ",
"                % % # 5 7 7 4 q M E &.%.K 7 ; %                 ",
"                a t # o , 1 3 q M E &.%.K x p a                 ",
"                L j t r f D y C O.9.w.7.' T ! L                 ",
"                ( L a a L L a j -.q.q.4.} ( ( (                 ",
"                        ^ L a d ( ....}                         ",
"                        ( L a a L ( ( (                         ",
"                                                                ",
"                                                                "
};
