/* XPM */
static char *_c1a30ed295a4c27e331fa28f130400ffP6cQtWYl3E0yNrW[] = {
/* columns rows colors chars-per-pixel */
"32 32 105 2 ",
"   c None",
".  c black",
"X  c #020202",
"o  c gray2",
"O  c #070707",
"+  c #0B0103",
"@  c #0C0700",
"#  c gray3",
"$  c #090909",
"%  c gray4",
"&  c #0C0C0C",
"*  c #110C05",
"=  c #100E0A",
"-  c #10100F",
";  c #151514",
":  c #161615",
">  c #171716",
",  c gray9",
"<  c #1A1A19",
"1  c #1C1C1B",
"2  c #1E1E1E",
"3  c #210309",
"4  c #29040B",
"5  c #2C040C",
"6  c #251500",
"7  c #261702",
"8  c #34230A",
"9  c #34250F",
"0  c #262119",
"q  c #3B2C16",
"w  c #30291E",
"e  c #3C301E",
"r  c gray13",
"t  c #252525",
"y  c gray15",
"u  c #282828",
"i  c #3B3325",
"p  c gray24",
"a  c #461809",
"s  c #460711",
"d  c #4E0715",
"f  c #64091B",
"g  c #6B0A1D",
"h  c #780D1B",
"j  c #70101B",
"k  c #59380A",
"l  c #443319",
"z  c #49381E",
"x  c #413523",
"c  c #6E4000",
"v  c #734505",
"b  c #794103",
"n  c #7A4C0C",
"m  c #514533",
"M  c #644C28",
"N  c #6C593D",
"B  c #745C38",
"V  c #444444",
"C  c #5B5B5B",
"Z  c #706047",
"A  c #7C694C",
"S  c #7F7056",
"D  c gray38",
"F  c #626262",
"G  c #656565",
"H  c #727272",
"J  c #797979",
"K  c #850C24",
"L  c #8E0D26",
"P  c #910D27",
"I  c #9F0F29",
"U  c #991024",
"Y  c #A70F2D",
"T  c #AA102C",
"R  c #AF102F",
"E  c #B21030",
"W  c #9D691E",
"Q  c #AA701E",
"!  c #A36E23",
"~  c #A47025",
"^  c #AD7628",
"/  c #B37C2E",
"(  c #8F7B5B",
")  c #CD923D",
"_  c #CF933E",
"`  c #B4905B",
"'  c #B6925D",
"]  c #998361",
"[  c #BB9762",
"{  c #DD9F47",
"}  c #D9A65B",
"|  c #C49E65",
" . c #C9A36A",
".. c #CBAB79",
"X. c #D1B17F",
"o. c #E4B979",
"O. c #E6BB7B",
"+. c #838383",
"@. c #989898",
"#. c #CFB284",
"$. c #D4B789",
"%. c #F4C784",
"&. c #EFCD98",
"*. c #F1CF9A",
"=. c #FBD498",
/* pixels */
"                        . . . . . o , 1 1 1                     ",
"                        . . . . o & , 1 1 <                     ",
"                    . . . . . o - , < 1 1 , # .                 ",
"                    . . . . . * 9 q 0 1 1 , & o                 ",
"                    . . . . . 6 v n q 1 1 < , ,                 ",
"                    . @ 6 8 e M ^ / B m z q 0 1                 ",
"                    . 6 c W ` ..o.o.X.[ ~ n q 1                 ",
"                    . 8 W ) | #.&.*.$. .) ! l ,                 ",
"                    . e ` | N Z #.$.S A  .' x o                 ",
"                    . e ` | N Z #.$.S A  .` e .                 ",
"                    . 8 W ) | #.&.*.$. .) W 8 .                 ",
"                    4 a b Q } %.=.=.%.} Q b a 4                 ",
"                . 4 g j a k Q { %.%.{ Q k a j g 4 .             ",
"                4 d P P d a b W ` ` W b a d P P d 4             ",
"            . 4 g P Y Y P j a 8 e e 8 a j P Y Y P g 4 .         ",
"            . 5 K R T T R P d 5 5 5 5 d P R T T R K 5 .         ",
"            . 5 K T U U T Y P K K K K P Y T U U T K 5 .         ",
"            . 5 K I h h I E E E E E E E E I h h I K 5 .         ",
"            . 5 K L s s L E E E E E E E E L s s L K 5 .         ",
"            . 3 f f 3 3 f K K K K K K K K f 3 3 f f 3 .         ",
"            . + 3 3 + + 3 5 5 5 5 5 5 5 5 3 + + 3 3 + .         ",
"            . = w w = # 2 t r , # # , r t 2 # = w w = .         ",
"            . w ( ( w 2 C H D V , , V D H C 2 w ( ( w .         ",
"            . i ] ( w u J @.+.C 2 2 C +.@.J u w ( ] i .         ",
"                i w = u J @.+.C 2 2 C +.@.J u = w i             ",
"                . . . u J @.+.C 2 2 C +.@.J u . . .             ",
"                    . u J @.+.C 2 2 C +.@.J u .                 ",
"                    . t D J J C 2 2 C J J D t .                 ",
"                        t p G C 2 2 C G p t                     ",
"                        . , V V , , V V , .                     ",
"                    . . . # , , # # , , # . . .                 ",
"                    . . . . . . . . . . . . . .                 "
};
