/* XPM */
static char *_47e2e98091f47a9d73920afd22f01c6CdjamBsZSpTsMiWC[] = {
/* columns rows colors chars-per-pixel */
"32 32 137 2 ",
"   c None",
".  c #794100",
"X  c #794200",
"o  c #814700",
"O  c #804A02",
"+  c #8F5000",
"@  c #8E5302",
"#  c #8E5C06",
"$  c #925300",
"%  c #975600",
"&  c #985700",
"*  c #935F06",
"=  c #9A5900",
"-  c #9D5900",
";  c #995C02",
":  c #9C5C02",
">  c #A05C00",
",  c #946307",
"<  c #976206",
"1  c #996607",
"2  c #956508",
"3  c #976816",
"4  c #AB6200",
"5  c #A16806",
"6  c #A36E08",
"7  c #B46B00",
"8  c #B26E02",
"9  c #B86E02",
"0  c #BC6E00",
"q  c #AF7808",
"w  c #B07506",
"e  c #B87706",
"r  c #BD7A06",
"t  c #996E32",
"y  c #C07100",
"u  c #C37100",
"i  c #C47200",
"p  c #C57702",
"a  c #C47800",
"s  c #C97B00",
"d  c #CA7B00",
"f  c #C77A10",
"g  c #A87940",
"h  c #AB810E",
"j  c #BF8008",
"k  c #B99312",
"l  c #BE9913",
"z  c #C68006",
"x  c #C68407",
"c  c #CA8306",
"v  c #CE8606",
"b  c #CD8908",
"n  c #D28100",
"m  c #D18002",
"M  c #D98300",
"N  c #DD8A00",
"B  c #D99006",
"V  c #DA9306",
"C  c #D89308",
"Z  c #CE8C16",
"A  c #C79C12",
"S  c #CC9F12",
"D  c #D69F1C",
"F  c #E08A00",
"G  c #E69000",
"H  c #E59302",
"J  c #E89000",
"K  c #E29906",
"L  c #EC9F06",
"P  c #E19C08",
"I  c #F29C02",
"U  c #F79C00",
"Y  c #CCA213",
"T  c #CEAE18",
"R  c #D2A512",
"E  c #D5A512",
"W  c #D9A812",
"Q  c #DBAB12",
"!  c #D3B118",
"~  c #D7B518",
"^  c #DCB718",
"/  c #D6B81A",
"(  c #EFA508",
")  c #F3A506",
"_  c #FFA200",
"`  c #FEA502",
"'  c #F7A806",
"]  c #FBAB06",
"[  c #FAAE08",
"{  c #F6B70E",
"}  c #E5B112",
"|  c #E8B412",
" . c #EBB712",
".. c #E1BA18",
"X. c #E5BE18",
"o. c #F4BE12",
"O. c #F7BA1C",
"+. c #CE8C30",
"@. c #D19232",
"#. c #D69E36",
"$. c #DDB122",
"%. c #D8A438",
"&. c #E8C118",
"*. c #ECC418",
"=. c #E4CA1E",
"-. c #EFCA1A",
";. c #F0C718",
":. c #ECD01E",
">. c #E5C328",
",. c #EBD320",
"<. c #ECD62E",
"1. c #C48B40",
"2. c #D29440",
"3. c #D9A746",
"4. c #D2B742",
"5. c #E5C342",
"6. c #E7C944",
"7. c #ECD548",
"8. c #EFDB4A",
"9. c #F2D244",
"0. c #E8CC52",
"q. c #F0DE58",
"w. c #DAC795",
"e. c #E5C18F",
"r. c #E7C791",
"t. c #ECD395",
"y. c #EFD997",
"u. c #F4E69B",
"i. c #F7E99B",
"p. c #F6EC9D",
"a. c #E2D2BF",
"s. c #EBD8BF",
"d. c #F0DBBF",
"f. c #F2E2C1",
"g. c #F7EEC5",
"h. c #FAF4C7",
"j. c white",
/* pixels */
"                        X = N [ ;.,.,...b y                     ",
"                        & 8 K O.9.q.q.6.D x                     ",
"                    X & d K  .9.i.h.h.u.6.Y 1 X                 ",
"                    X = N '  .5.t.d.d.y.7.T 2 X                 ",
"                    X = N I B Z @.2.2.%.>.T 2 X                 ",
"                    X % n J M n v Z @.#.$.A * X                 ",
"                    X + 0 M J L } 5.t.r.#.e + X                 ",
"                    X + 0 M J ( *.7.y.r.#.e + X                 ",
"                    X % n J M C X.>.%.#.$.A * X                 ",
"                    X % n J M C X.>.%.#.$.A * X                 ",
"                    X + 0 M J ( *.7.y.r.#.e + X                 ",
"                    & > 4 y F ( *.7.y.e.+.9 5 1                 ",
"                X & d d > - y C X.>.%.+.f z S Y x i             ",
"                & 8 K K 8 > 4 r E Q c f +.3.0.6.D x             ",
"            X & d K  . .K d > : r c p +.e.f.g.u.6.Y 1 X         ",
"            X = N [ ;.-.{ P q 6 j b b 3.f.j.j.h.q.T 2 X         ",
"            X = N [ ;.:.-.&.~ ! ^ ....0.g.j.j.h.q.T 2 X         ",
"            X = N ) Q ~ &.;.;.-.:.,.,.8.p.g.f.y.7.T 2 X         ",
"            X = N G w q P [ [ { -.,.,.<.8.0.3.%.>.T 2 X         ",
"            X $ a d > > d N N B R ! ^ ....Q c c Q A * X         ",
"            X o $ > 4 4 > = = ; < 6 j b b c p p c e + X         ",
"            X o $ > 4 4 > ; < # O + e Z @.+.f p c e + X         ",
"            X $ a d > > d B R k # * A 5.t.e.+.c Q A * X         ",
"            X & d a $ = N ] o.R < 2 T q.h.s.1.e A l < X         ",
"                & $ o = N ` ] B ; 2 T q.h.a.g + * <             ",
"                X X X = N _ _ N = 2 T 8.p.w.t X X X             ",
"                    X = N _ _ N = 2 T <.8.4.3 X                 ",
"                    X & d G U N = 2 T =./ l < X                 ",
"                        & 7 G N = 2 T / h <                     ",
"                        X $ a a $ # k k # X                     ",
"                    X X X o $ $ o O # # O X X X                 ",
"                    X X X X X X X X X X X X X X                 "
};
