/* XPM */
static char *_3ab7eefd1e9413bdb9c8ed5724d6446T72IpuyvgU2Rt2XW[] = {
/* columns rows colors chars-per-pixel */
"32 32 124 2 ",
"   c None",
".  c black",
"X  c #080707",
"o  c #171515",
"O  c #1F1C1C",
"+  c #292626",
"@  c #302C2C",
"#  c #322F2F",
"$  c #373535",
"%  c #3B3838",
"&  c #413B3B",
"*  c #433B3B",
"=  c #443F3F",
"-  c #463E3E",
";  c #4A4141",
":  c #4A4444",
">  c #4F4545",
",  c #4D4747",
"<  c #554B4B",
"1  c #534D4D",
"2  c #534F4F",
"3  c #554C4C",
"4  c #574D4D",
"5  c #584E4E",
"6  c #5C5252",
"7  c #5E5353",
"8  c #5F5959",
"9  c #6A5E5E",
"0  c #6B5F5F",
"q  c #6D6464",
"w  c #706464",
"e  c #746A6A",
"r  c #766C6C",
"t  c #7B7070",
"y  c #7C7171",
"u  c #7E7070",
"i  c #7F7373",
"p  c #817373",
"a  c #827676",
"s  c #827777",
"d  c #847676",
"f  c #847878",
"g  c #867878",
"h  c #847B7B",
"j  c #887C7C",
"k  c #8A7C7C",
"l  c #8B7D7D",
"z  c #8D8484",
"x  c #918484",
"c  c #908585",
"v  c #928484",
"b  c #938686",
"n  c #978989",
"m  c #958A8A",
"M  c #978E8E",
"N  c #998B8B",
"B  c #9E9090",
"V  c #A09393",
"C  c #A19393",
"Z  c #A09595",
"A  c #A49595",
"S  c #A69797",
"D  c #A69898",
"F  c #A79999",
"G  c #A79C9C",
"H  c #AA9C9C",
"J  c #AD9F9F",
"K  c #AE9F9F",
"L  c #A6A0A0",
"P  c #AEA0A0",
"I  c #AFA0A0",
"U  c #B0A1A1",
"Y  c #B0A4A4",
"T  c #B2A7A7",
"R  c #B4A6A6",
"E  c #BBADAD",
"W  c #BAAEAE",
"Q  c #BCAEAE",
"!  c #BEB0B0",
"~  c #BEB2B2",
"^  c #B9B4B4",
"/  c #C0B2B2",
"(  c #C1B2B2",
")  c #C0B3B3",
"_  c #C1B4B4",
"`  c #C2B6B6",
"'  c #C5B7B7",
"]  c #C5B9B9",
"[  c #C7BABA",
"{  c #C9BCBC",
"}  c #CABDBD",
"|  c #CBBDBD",
" . c #CBBEBE",
".. c #CEC1C1",
"X. c #D1C3C3",
"o. c #D2C4C4",
"O. c #D4C5C5",
"+. c #D0CACA",
"@. c #D4C8C8",
"#. c #D6C9C9",
"$. c #D8CACA",
"%. c #D9CBCB",
"&. c #DFD7D7",
"*. c #E0D3D3",
"=. c #E2D4D4",
"-. c #E3D5D5",
";. c #E6D8D8",
":. c #E7DBDB",
">. c #E4DDDD",
",. c #E8DCDC",
"<. c #EDDFDF",
"1. c #EEDFDF",
"2. c #EEE0E0",
"3. c #EFE3E3",
"4. c #F0E4E4",
"5. c #F0E5E5",
"6. c #F1EAEA",
"7. c #F0EBEB",
"8. c #F3EAEA",
"9. c #F4EEEE",
"0. c #F6EFEF",
"q. c #F6F0F0",
"w. c #F6F2F2",
"e. c #F8F3F3",
/* pixels */
"                                                                ",
"                                                                ",
"                                                                ",
"                                                                ",
"                    / | =.<.<.<.<.<.<.<.                        ",
"                    / | =.<.<.2.2.4.4.4.                        ",
"                / / / | =.<.<.2.7.9.q.9.4.<.                    ",
"                ! / / | =.<.<.4.9.e.q.7.;.=.                    ",
"            D K E / / | =.<.<.4.q.q.7.>.@.o.=.<.                ",
"            S V m c c Z _ $.;.,.&.+.^ L M G @.<.                ",
"            S l , @ @ : i P $.$.T g 1 $ @ 8 ! <.                ",
"            S i + . . o - a | | a - o . . % T <.                ",
"            S i + . . X o 1 E E 1 o X . . % T <.                ",
"            S g & O O O O - z z - O O O O 1 E <.                ",
"            S c w 7 7 7 7 3 - - 3 7 7 7 7 a | <.                ",
"            D B c l g p i 7 O O 7 d c N N H O.<.                ",
"                P D m l p 7 O O 7 c Q X.X.O.                    ",
"                / R V N N a 1 1 a P $.<.<.<.                    ",
"                    S K ' | E E | $.;.<.                        ",
"                    D U / [ [ [ _ | *.<.                        ",
"                        i t t r q e                             ",
"                        < 3 7 5 ; &                             ",
"                        < 7 0 0 5 ,                             ",
"                        t a c c a t                             ",
"                        [ | ....| [                             ",
"                        <.<.<.<.<.<.                            ",
"                                                                ",
"                                                                ",
"                                                                ",
"                                                                ",
"                                                                ",
"                                                                "
};
